<svg fill="none" height="48" viewBox="0 0 48 48" width="48" xmlns="http://www.w3.org/2000/svg" xmlns:xlink="http://www.w3.org/1999/xlink"><mask id="a" fill="#ffffff"><path d="m23.2435 44.1247c.3988.4615 1.1142.4615 1.513 0l18.0755-20.9116c-2.1019 1.7368-4.839 2.7869-7.832 2.7869-4.9194 0-9.1475-2.8369-11-6.8967-1.8525 4.0598-6.0806 6.8967-11 6.8967-2.993 0-5.73012-1.0501-7.832-2.7868z" fill="#ffffff"/><path clip-rule="evenodd" d="m13 26c4.9194 0 9.1475-2.8369 11-6.8967-.6432-1.4096-1-2.9665-1-4.6033s.3568-3.1937 1-4.60328c-1.8525-4.05983-6.0806-6.89672-11-6.89672-6.62742 0-12 5.14873-12 11.5 0 3.483 1.61569 6.6043 4.168 8.7132 2.10188 1.7367 4.839 2.7868 7.832 2.7868z" fill="#ffffff" fill-rule="evenodd"/><path d="m25 14.5c0-1.6368-.3568-3.1937-1-4.60328-.6432 1.40958-1 2.96648-1 4.60328s.3568 3.1937 1 4.6033c.6432-1.4095 1-2.9665 1-4.6033z" fill="#ffffff"/><path d="m47 14.5c0-6.35127-5.3726-11.5-12-11.5-4.9194 0-9.1475 2.83689-11 6.89672.6432 1.40958 1 2.96648 1 4.60328s-.3568 3.1938-1 4.6033c1.8525 4.0598 6.0806 6.8967 11 6.8967 2.993 0 5.7301-1.0501 7.832-2.7869 2.5523-2.1088 4.168-5.2302 4.168-8.7131z" fill="#ffffff"/></mask><g fill="#ffffff"><path d="m23.2435 44.1247c.3988.4615 1.1142.4615 1.513 0l18.0755-20.9116c-2.1019 1.7368-4.839 2.7869-7.832 2.7869-4.9194 0-9.1475-2.8369-11-6.8967-1.8525 4.0598-6.0806 6.8967-11 6.8967-2.993 0-5.73012-1.0501-7.832-2.7868z" fill="#ffffff"/><path clip-rule="evenodd" d="m13 26c4.9194 0 9.1475-2.8369 11-6.8967-.6432-1.4096-1-2.9665-1-4.6033s.3568-3.1937 1-4.60328c-1.8525-4.05983-6.0806-6.89672-11-6.89672-6.62742 0-12 5.14873-12 11.5 0 3.483 1.61569 6.6043 4.168 8.7132 2.10188 1.7367 4.839 2.7868 7.832 2.7868z" fill-rule="evenodd" fill="#ffffff"/><path d="m25 14.5c0-1.6368-.3568-3.1937-1-4.60328-.6432 1.40958-1 2.96648-1 4.60328s.3568 3.1937 1 4.6033c.6432-1.4095 1-2.9665 1-4.6033z" fill="#ffffff"/><path d="m47 14.5c0-6.35127-5.3726-11.5-12-11.5-4.9194 0-9.1475 2.83689-11 6.89672.6432 1.40958 1 2.96648 1 4.60328s-.3568 3.1938-1 4.6033c1.8525 4.0598 6.0806 6.8967 11 6.8967 2.993 0 5.7301-1.0501 7.832-2.7869 2.5523-2.1088 4.168-5.2302 4.168-8.7131z" fill="#ffffff"/><path d="m42.832 23.2131.3185.3855.0324-.0267.0274-.0318zm-18.832-13.31638.4549-.20756-.4549-.99688-.4549.99688zm-18.832 13.31648-.37828.3269.02744.0318.03235.0267zm18.3771-13.1089c.6142 1.3461.9549 2.8324.9549 4.3957h1c0-1.7103-.373-3.3379-1.0451-4.81084zm.9549 4.3957c0 1.5633-.3407 3.0496-.9549 4.3957l.9098.4151c.6721-1.4729 1.0451-3.1005 1.0451-4.8108zm-.9549 4.8108c1.9347 4.2399 6.3417 7.1892 11.4549 7.1892v-1c-4.7257 0-8.7747-2.7245-10.5451-6.6043zm11.4549 7.1892c3.1114 0 5.9606-1.092 8.1505-2.9014l-.6369-.7709c-2.0139 1.664-4.6389 2.6723-7.5136 2.6723zm-11.4549-7.6043c-1.7704 3.8798-5.8194 6.6043-10.5451 6.6043v1c5.1132 0 9.5202-2.9493 11.4549-7.1892zm.9098 0c-.6142-1.3461-.9549-2.8324-.9549-4.3957h-1c0 1.7103.373 3.3379 1.0451 4.8108zm-.9549-4.3957c0-1.5633.3407-3.0496.9549-4.3957l-.9098-.41514c-.6721 1.47294-1.0451 3.10054-1.0451 4.81084zm19.7103 9.0401 2.4282-2.8092-.7565-.6539-2.4282 2.8092zm-30.2103 1.9599c-2.8747 0-5.49963-1.0083-7.51352-2.6723l-.63697.7709c2.18988 1.8095 5.03913 2.9014 8.15049 2.9014zm-10.63851-4.7691 2.42823 2.8092.75655-.6539-2.42823-2.8092zm20.88201 23.3938.7565-.6539zm1.513 0-.7565-.6539zm18.0755-20.9116-.6369-.7708-.0647.0534-.0549.0635zm-18.832-13.31638-.9098.41518.9098 1.9937.9098-1.9937zm-18.832 13.31648.75654-.654-.05488-.0635-.0647-.0534zm17.3189 21.5655c.7977.9228 2.2285.9228 3.0262 0l-1.5131-1.3079zm12.5131-40.7787c6.1157 0 11 4.74069 11 10.5h2c0-6.94324-5.8608-12.5-13-12.5zm-33 10.5c0-5.75931 4.88433-10.5 11-10.5v-2c-7.13916 0-13 5.55676-13 12.5zm41.469 9.484c2.7655-2.285 4.531-5.6818 4.531-9.484h-2c0 3.1637-1.4659 6.0096-3.8049 7.9423zm-8.469-21.984c-5.3069 0-9.893 3.06172-11.9098 7.4816l1.8196.8303c1.6882-3.69983 5.5582-6.3119 10.0902-6.3119zm-22 2c4.532 0 8.402 2.61207 10.0902 6.3119l1.8196-.8303c-2.0168-4.41988-6.6029-7.4816-11.9098-7.4816zm12.5131 40.7787 18.0755-20.9116-1.5131-1.3079-18.0755 20.9116zm-21.10165-20.9116 18.07545 20.9116 1.5131-1.3079-18.07546-20.9116zm1.39351-1.4248c-2.33907-1.9327-3.80496-4.7786-3.80496-7.9423h-2c0 3.8022 1.76549 7.199 4.53103 9.4841z" mask="url(#a)" fill="#ffffff"/></g></svg>